<svg xmlns="http://www.w3.org/2000/svg" viewBox="0 0 32 32"><defs><radialGradient id="g" cx="40%" cy="38%"><stop offset="0%" stop-color="#f0d060"/><stop offset="100%" stop-color="#b8942e"/></radialGradient></defs><circle cx="16" cy="16" r="15.5" fill="url(#g)"/><circle cx="16" cy="16" r="14.5" fill="none" stroke="#7a6420" stroke-width="1.0"/><g transform="translate(5.7875,25.1310) scale(0.026,-0.026)"><path d="M729 292 753 110Q733 77 697.5 49.0Q662 21 606.5 3.5Q551 -14 472 -14Q338 -13 239.5 29.5Q141 72 88.0 153.0Q35 234 35 351Q35 465 87.0 546.5Q139 628 237.0 671.0Q335 714 473 714Q557 714 622.5 700.0Q688 686 730 668L720 477H711Q681 583 624.0 623.5Q567 664 490 664Q416 664 363.5 627.0Q311 590 283.0 521.0Q255 452 255 354Q255 256 281.0 185.5Q307 115 355.5 76.5Q404 38 472 36Q553 36 601.0 60.0Q649 84 676.0 140.5Q703 197 721 292Z" fill="#1c1714"/></g></svg>